<mxfile host="Electron" agent="Mozilla/5.0 (Windows NT 10.0; Win64; x64) AppleWebKit/537.36 (KHTML, like Gecko) draw.io/24.7.5 Chrome/126.0.6478.183 Electron/31.3.0 Safari/537.36" version="24.7.5">
  <diagram name="Page-1" id="iSfa4li5FRJRK_Rbrkfz">
    <mxGraphModel dx="606" dy="731" grid="1" gridSize="10" guides="1" tooltips="1" connect="1" arrows="1" fold="1" page="1" pageScale="1" pageWidth="827" pageHeight="1169" math="0" shadow="0">
      <root>
        <mxCell id="0" />
        <mxCell id="1" parent="0" />
        <mxCell id="BUuTYVptsAqOlCM5KFqE-1" value="Send starts the chat app" style="rounded=1;whiteSpace=wrap;html=1;" parent="1" vertex="1">
          <mxGeometry x="40" y="335" width="120" height="60" as="geometry" />
        </mxCell>
        <mxCell id="BUuTYVptsAqOlCM5KFqE-2" value="Sender logs in" style="rounded=1;whiteSpace=wrap;html=1;" parent="1" vertex="1">
          <mxGeometry x="240" y="335" width="120" height="60" as="geometry" />
        </mxCell>
        <mxCell id="BUuTYVptsAqOlCM5KFqE-3" value="Sender success logged in" style="rounded=1;whiteSpace=wrap;html=1;" parent="1" vertex="1">
          <mxGeometry x="600" y="335" width="120" height="60" as="geometry" />
        </mxCell>
        <mxCell id="BUuTYVptsAqOlCM5KFqE-4" value="Sender fail to log in" style="rounded=1;whiteSpace=wrap;html=1;" parent="1" vertex="1">
          <mxGeometry x="430" y="190" width="120" height="60" as="geometry" />
        </mxCell>
        <mxCell id="BUuTYVptsAqOlCM5KFqE-5" value="Authenticate sender" style="rhombus;whiteSpace=wrap;html=1;" parent="1" vertex="1">
          <mxGeometry x="440" y="310" width="100" height="110" as="geometry" />
        </mxCell>
        <mxCell id="BUuTYVptsAqOlCM5KFqE-6" value="Chat interface" style="rounded=1;whiteSpace=wrap;html=1;" parent="1" vertex="1">
          <mxGeometry x="1121" y="335" width="120" height="60" as="geometry" />
        </mxCell>
        <mxCell id="BUuTYVptsAqOlCM5KFqE-8" value="Authorize sender" style="rhombus;whiteSpace=wrap;html=1;" parent="1" vertex="1">
          <mxGeometry x="800" y="320" width="90" height="90" as="geometry" />
        </mxCell>
        <mxCell id="BUuTYVptsAqOlCM5KFqE-9" value="Show fail login error message" style="rounded=1;whiteSpace=wrap;html=1;" parent="1" vertex="1">
          <mxGeometry x="260" y="190" width="120" height="60" as="geometry" />
        </mxCell>
        <mxCell id="BUuTYVptsAqOlCM5KFqE-11" value="Sender choose a destination" style="rounded=1;whiteSpace=wrap;html=1;" parent="1" vertex="1">
          <mxGeometry x="1310" y="335" width="120" height="60" as="geometry" />
        </mxCell>
        <mxCell id="BUuTYVptsAqOlCM5KFqE-14" value="Sender sends message" style="rounded=1;whiteSpace=wrap;html=1;" parent="1" vertex="1">
          <mxGeometry x="1121" y="650" width="120" height="60" as="geometry" />
        </mxCell>
        <mxCell id="BUuTYVptsAqOlCM5KFqE-15" value="Send or Cancel" style="rhombus;whiteSpace=wrap;html=1;" parent="1" vertex="1">
          <mxGeometry x="1320" y="635" width="100" height="90" as="geometry" />
        </mxCell>
        <mxCell id="BUuTYVptsAqOlCM5KFqE-17" value="Sender server verifies sender" style="rhombus;whiteSpace=wrap;html=1;" parent="1" vertex="1">
          <mxGeometry x="950" y="625" width="110" height="110" as="geometry" />
        </mxCell>
        <mxCell id="BUuTYVptsAqOlCM5KFqE-18" value="Success verified" style="rounded=1;whiteSpace=wrap;html=1;" parent="1" vertex="1">
          <mxGeometry x="785" y="650" width="120" height="60" as="geometry" />
        </mxCell>
        <mxCell id="BUuTYVptsAqOlCM5KFqE-19" value="Fail to verify" style="rounded=1;whiteSpace=wrap;html=1;" parent="1" vertex="1">
          <mxGeometry x="945" y="480" width="120" height="60" as="geometry" />
        </mxCell>
        <mxCell id="BUuTYVptsAqOlCM5KFqE-20" value="Sender Server sends message" style="rounded=1;whiteSpace=wrap;html=1;" parent="1" vertex="1">
          <mxGeometry x="600" y="650" width="120" height="60" as="geometry" />
        </mxCell>
        <mxCell id="BUuTYVptsAqOlCM5KFqE-21" value="Receiver server verifies sender server" style="rhombus;whiteSpace=wrap;html=1;" parent="1" vertex="1">
          <mxGeometry x="430" y="620" width="120" height="120" as="geometry" />
        </mxCell>
        <mxCell id="BUuTYVptsAqOlCM5KFqE-22" value="Success verified" style="rounded=1;whiteSpace=wrap;html=1;" parent="1" vertex="1">
          <mxGeometry x="240" y="650" width="120" height="60" as="geometry" />
        </mxCell>
        <mxCell id="BUuTYVptsAqOlCM5KFqE-23" value="Fail to verify" style="rounded=1;whiteSpace=wrap;html=1;" parent="1" vertex="1">
          <mxGeometry x="430" y="490" width="120" height="60" as="geometry" />
        </mxCell>
        <mxCell id="BUuTYVptsAqOlCM5KFqE-24" value="Success verified" style="rounded=1;whiteSpace=wrap;html=1;" parent="1" vertex="1">
          <mxGeometry x="40" y="817" width="120" height="60" as="geometry" />
        </mxCell>
        <mxCell id="BUuTYVptsAqOlCM5KFqE-25" value="Receiver server verifies sender" style="rhombus;whiteSpace=wrap;html=1;" parent="1" vertex="1">
          <mxGeometry x="40" y="625" width="120" height="110" as="geometry" />
        </mxCell>
        <mxCell id="BUuTYVptsAqOlCM5KFqE-26" value="Fail to verify" style="rounded=1;whiteSpace=wrap;html=1;" parent="1" vertex="1">
          <mxGeometry x="40" y="480" width="120" height="60" as="geometry" />
        </mxCell>
        <mxCell id="BUuTYVptsAqOlCM5KFqE-27" value="Message sent to receiver" style="rounded=1;whiteSpace=wrap;html=1;" parent="1" vertex="1">
          <mxGeometry x="240" y="817" width="120" height="60" as="geometry" />
        </mxCell>
        <mxCell id="BUuTYVptsAqOlCM5KFqE-28" value="Authenticate receiver" style="rhombus;whiteSpace=wrap;html=1;" parent="1" vertex="1">
          <mxGeometry x="605" y="792" width="110" height="110" as="geometry" />
        </mxCell>
        <mxCell id="BUuTYVptsAqOlCM5KFqE-29" value="Receiver log in" style="rounded=1;whiteSpace=wrap;html=1;" parent="1" vertex="1">
          <mxGeometry x="430" y="817" width="120" height="60" as="geometry" />
        </mxCell>
        <mxCell id="BUuTYVptsAqOlCM5KFqE-31" value="Authorize receiver" style="rhombus;whiteSpace=wrap;html=1;" parent="1" vertex="1">
          <mxGeometry x="950" y="792" width="110" height="110" as="geometry" />
        </mxCell>
        <mxCell id="BUuTYVptsAqOlCM5KFqE-32" value="Success receiver login" style="rounded=1;whiteSpace=wrap;html=1;" parent="1" vertex="1">
          <mxGeometry x="785" y="817" width="120" height="60" as="geometry" />
        </mxCell>
        <mxCell id="BUuTYVptsAqOlCM5KFqE-33" value="Fail to log in" style="rounded=1;whiteSpace=wrap;html=1;" parent="1" vertex="1">
          <mxGeometry x="600" y="967" width="120" height="60" as="geometry" />
        </mxCell>
        <mxCell id="BUuTYVptsAqOlCM5KFqE-34" value="Receiver receives message" style="rounded=1;whiteSpace=wrap;html=1;" parent="1" vertex="1">
          <mxGeometry x="1121" y="817" width="120" height="60" as="geometry" />
        </mxCell>
        <mxCell id="BUuTYVptsAqOlCM5KFqE-35" value="Receiver enables notification" style="rhombus;whiteSpace=wrap;html=1;" parent="1" vertex="1">
          <mxGeometry x="1310" y="787" width="120" height="120" as="geometry" />
        </mxCell>
        <mxCell id="BUuTYVptsAqOlCM5KFqE-36" value="User interface" style="rhombus;whiteSpace=wrap;html=1;" parent="1" vertex="1">
          <mxGeometry x="960" y="317.5" width="90" height="95" as="geometry" />
        </mxCell>
        <mxCell id="BUuTYVptsAqOlCM5KFqE-37" value="Receiver views message" style="rounded=1;whiteSpace=wrap;html=1;" parent="1" vertex="1">
          <mxGeometry x="1310" y="967" width="120" height="60" as="geometry" />
        </mxCell>
        <mxCell id="BUuTYVptsAqOlCM5KFqE-38" value="Show fail login error message" style="rounded=1;whiteSpace=wrap;html=1;" parent="1" vertex="1">
          <mxGeometry x="430" y="967" width="120" height="60" as="geometry" />
        </mxCell>
        <mxCell id="BUuTYVptsAqOlCM5KFqE-39" value="" style="endArrow=classic;html=1;rounded=0;exitX=1;exitY=0.5;exitDx=0;exitDy=0;entryX=0;entryY=0.5;entryDx=0;entryDy=0;" parent="1" source="BUuTYVptsAqOlCM5KFqE-1" target="BUuTYVptsAqOlCM5KFqE-2" edge="1">
          <mxGeometry width="50" height="50" relative="1" as="geometry">
            <mxPoint x="210" y="500" as="sourcePoint" />
            <mxPoint x="260" y="450" as="targetPoint" />
          </mxGeometry>
        </mxCell>
        <mxCell id="BUuTYVptsAqOlCM5KFqE-40" value="" style="endArrow=classic;html=1;rounded=0;exitX=1;exitY=0.5;exitDx=0;exitDy=0;entryX=0;entryY=0.5;entryDx=0;entryDy=0;" parent="1" source="BUuTYVptsAqOlCM5KFqE-2" target="BUuTYVptsAqOlCM5KFqE-5" edge="1">
          <mxGeometry width="50" height="50" relative="1" as="geometry">
            <mxPoint x="380" y="460" as="sourcePoint" />
            <mxPoint x="430" y="410" as="targetPoint" />
          </mxGeometry>
        </mxCell>
        <mxCell id="BUuTYVptsAqOlCM5KFqE-41" value="" style="endArrow=classic;html=1;rounded=0;exitX=1;exitY=0.5;exitDx=0;exitDy=0;entryX=0;entryY=0.5;entryDx=0;entryDy=0;" parent="1" source="BUuTYVptsAqOlCM5KFqE-5" target="BUuTYVptsAqOlCM5KFqE-3" edge="1">
          <mxGeometry width="50" height="50" relative="1" as="geometry">
            <mxPoint x="550" y="510" as="sourcePoint" />
            <mxPoint x="600" y="460" as="targetPoint" />
          </mxGeometry>
        </mxCell>
        <mxCell id="BUuTYVptsAqOlCM5KFqE-43" value="" style="endArrow=classic;html=1;rounded=0;exitX=1;exitY=0.5;exitDx=0;exitDy=0;entryX=0;entryY=0.5;entryDx=0;entryDy=0;" parent="1" source="BUuTYVptsAqOlCM5KFqE-3" target="BUuTYVptsAqOlCM5KFqE-8" edge="1">
          <mxGeometry width="50" height="50" relative="1" as="geometry">
            <mxPoint x="640" y="490" as="sourcePoint" />
            <mxPoint x="690" y="440" as="targetPoint" />
          </mxGeometry>
        </mxCell>
        <mxCell id="BUuTYVptsAqOlCM5KFqE-44" value="" style="endArrow=classic;html=1;rounded=0;exitX=0.5;exitY=0;exitDx=0;exitDy=0;entryX=0.5;entryY=1;entryDx=0;entryDy=0;" parent="1" source="BUuTYVptsAqOlCM5KFqE-5" target="BUuTYVptsAqOlCM5KFqE-4" edge="1">
          <mxGeometry width="50" height="50" relative="1" as="geometry">
            <mxPoint x="920" y="490" as="sourcePoint" />
            <mxPoint x="970" y="440" as="targetPoint" />
          </mxGeometry>
        </mxCell>
        <mxCell id="BUuTYVptsAqOlCM5KFqE-45" value="" style="endArrow=classic;html=1;rounded=0;exitX=0;exitY=0.5;exitDx=0;exitDy=0;entryX=1;entryY=0.5;entryDx=0;entryDy=0;" parent="1" source="BUuTYVptsAqOlCM5KFqE-4" target="BUuTYVptsAqOlCM5KFqE-9" edge="1">
          <mxGeometry width="50" height="50" relative="1" as="geometry">
            <mxPoint x="750" y="460" as="sourcePoint" />
            <mxPoint x="390" y="230" as="targetPoint" />
          </mxGeometry>
        </mxCell>
        <mxCell id="BUuTYVptsAqOlCM5KFqE-46" value="" style="endArrow=classic;html=1;rounded=0;exitX=1;exitY=0.5;exitDx=0;exitDy=0;entryX=0;entryY=0.5;entryDx=0;entryDy=0;" parent="1" source="BUuTYVptsAqOlCM5KFqE-8" target="BUuTYVptsAqOlCM5KFqE-36" edge="1">
          <mxGeometry width="50" height="50" relative="1" as="geometry">
            <mxPoint x="920" y="490" as="sourcePoint" />
            <mxPoint x="970" y="440" as="targetPoint" />
          </mxGeometry>
        </mxCell>
        <mxCell id="BUuTYVptsAqOlCM5KFqE-47" value="" style="endArrow=classic;html=1;rounded=0;exitX=1;exitY=0.5;exitDx=0;exitDy=0;entryX=0;entryY=0.5;entryDx=0;entryDy=0;" parent="1" source="BUuTYVptsAqOlCM5KFqE-36" target="BUuTYVptsAqOlCM5KFqE-6" edge="1">
          <mxGeometry width="50" height="50" relative="1" as="geometry">
            <mxPoint x="920" y="490" as="sourcePoint" />
            <mxPoint x="970" y="440" as="targetPoint" />
          </mxGeometry>
        </mxCell>
        <mxCell id="BUuTYVptsAqOlCM5KFqE-48" value="" style="endArrow=classic;html=1;rounded=0;exitX=1;exitY=0.5;exitDx=0;exitDy=0;entryX=0;entryY=0.5;entryDx=0;entryDy=0;" parent="1" source="BUuTYVptsAqOlCM5KFqE-6" target="BUuTYVptsAqOlCM5KFqE-11" edge="1">
          <mxGeometry width="50" height="50" relative="1" as="geometry">
            <mxPoint x="920" y="490" as="sourcePoint" />
            <mxPoint x="970" y="440" as="targetPoint" />
          </mxGeometry>
        </mxCell>
        <mxCell id="BUuTYVptsAqOlCM5KFqE-50" value="" style="endArrow=classic;html=1;rounded=0;exitX=0.5;exitY=1;exitDx=0;exitDy=0;" parent="1" source="BUuTYVptsAqOlCM5KFqE-11" target="BUuTYVptsAqOlCM5KFqE-15" edge="1">
          <mxGeometry width="50" height="50" relative="1" as="geometry">
            <mxPoint x="920" y="770" as="sourcePoint" />
            <mxPoint x="970" y="720" as="targetPoint" />
          </mxGeometry>
        </mxCell>
        <mxCell id="BUuTYVptsAqOlCM5KFqE-51" value="" style="endArrow=classic;html=1;rounded=0;exitX=0;exitY=0.5;exitDx=0;exitDy=0;entryX=1;entryY=0.5;entryDx=0;entryDy=0;" parent="1" source="BUuTYVptsAqOlCM5KFqE-15" target="BUuTYVptsAqOlCM5KFqE-14" edge="1">
          <mxGeometry width="50" height="50" relative="1" as="geometry">
            <mxPoint x="920" y="770" as="sourcePoint" />
            <mxPoint x="970" y="720" as="targetPoint" />
          </mxGeometry>
        </mxCell>
        <mxCell id="BUuTYVptsAqOlCM5KFqE-52" value="" style="endArrow=classic;html=1;rounded=0;entryX=1;entryY=0.5;entryDx=0;entryDy=0;exitX=0;exitY=0.5;exitDx=0;exitDy=0;" parent="1" source="BUuTYVptsAqOlCM5KFqE-14" target="BUuTYVptsAqOlCM5KFqE-17" edge="1">
          <mxGeometry width="50" height="50" relative="1" as="geometry">
            <mxPoint x="920" y="770" as="sourcePoint" />
            <mxPoint x="970" y="720" as="targetPoint" />
          </mxGeometry>
        </mxCell>
        <mxCell id="BUuTYVptsAqOlCM5KFqE-53" value="" style="endArrow=classic;html=1;rounded=0;entryX=1;entryY=0.5;entryDx=0;entryDy=0;exitX=0;exitY=0.5;exitDx=0;exitDy=0;" parent="1" source="BUuTYVptsAqOlCM5KFqE-17" target="BUuTYVptsAqOlCM5KFqE-18" edge="1">
          <mxGeometry width="50" height="50" relative="1" as="geometry">
            <mxPoint x="920" y="770" as="sourcePoint" />
            <mxPoint x="970" y="720" as="targetPoint" />
          </mxGeometry>
        </mxCell>
        <mxCell id="BUuTYVptsAqOlCM5KFqE-54" value="" style="endArrow=classic;html=1;rounded=0;entryX=1;entryY=0.5;entryDx=0;entryDy=0;" parent="1" source="BUuTYVptsAqOlCM5KFqE-18" target="BUuTYVptsAqOlCM5KFqE-20" edge="1">
          <mxGeometry width="50" height="50" relative="1" as="geometry">
            <mxPoint x="920" y="770" as="sourcePoint" />
            <mxPoint x="970" y="720" as="targetPoint" />
          </mxGeometry>
        </mxCell>
        <mxCell id="BUuTYVptsAqOlCM5KFqE-55" value="" style="endArrow=classic;html=1;rounded=0;entryX=1;entryY=0.5;entryDx=0;entryDy=0;exitX=0;exitY=0.5;exitDx=0;exitDy=0;" parent="1" source="BUuTYVptsAqOlCM5KFqE-20" target="BUuTYVptsAqOlCM5KFqE-21" edge="1">
          <mxGeometry width="50" height="50" relative="1" as="geometry">
            <mxPoint x="920" y="770" as="sourcePoint" />
            <mxPoint x="970" y="720" as="targetPoint" />
          </mxGeometry>
        </mxCell>
        <mxCell id="BUuTYVptsAqOlCM5KFqE-56" value="" style="endArrow=classic;html=1;rounded=0;entryX=1;entryY=0.5;entryDx=0;entryDy=0;exitX=0;exitY=0.5;exitDx=0;exitDy=0;" parent="1" source="BUuTYVptsAqOlCM5KFqE-21" target="BUuTYVptsAqOlCM5KFqE-22" edge="1">
          <mxGeometry width="50" height="50" relative="1" as="geometry">
            <mxPoint x="920" y="770" as="sourcePoint" />
            <mxPoint x="970" y="720" as="targetPoint" />
          </mxGeometry>
        </mxCell>
        <mxCell id="BUuTYVptsAqOlCM5KFqE-57" value="" style="endArrow=classic;html=1;rounded=0;entryX=1;entryY=0.5;entryDx=0;entryDy=0;exitX=0;exitY=0.5;exitDx=0;exitDy=0;" parent="1" source="BUuTYVptsAqOlCM5KFqE-22" target="BUuTYVptsAqOlCM5KFqE-25" edge="1">
          <mxGeometry width="50" height="50" relative="1" as="geometry">
            <mxPoint x="920" y="770" as="sourcePoint" />
            <mxPoint x="970" y="720" as="targetPoint" />
          </mxGeometry>
        </mxCell>
        <mxCell id="BUuTYVptsAqOlCM5KFqE-58" value="" style="endArrow=classic;html=1;rounded=0;exitX=0.5;exitY=1;exitDx=0;exitDy=0;entryX=0.5;entryY=0;entryDx=0;entryDy=0;" parent="1" target="BUuTYVptsAqOlCM5KFqE-24" edge="1">
          <mxGeometry width="50" height="50" relative="1" as="geometry">
            <mxPoint x="100" y="752" as="sourcePoint" />
            <mxPoint x="970" y="737" as="targetPoint" />
          </mxGeometry>
        </mxCell>
        <mxCell id="BUuTYVptsAqOlCM5KFqE-59" value="" style="endArrow=classic;html=1;rounded=0;exitX=1;exitY=0.5;exitDx=0;exitDy=0;entryX=0;entryY=0.5;entryDx=0;entryDy=0;" parent="1" source="BUuTYVptsAqOlCM5KFqE-24" target="BUuTYVptsAqOlCM5KFqE-27" edge="1">
          <mxGeometry width="50" height="50" relative="1" as="geometry">
            <mxPoint x="920" y="787" as="sourcePoint" />
            <mxPoint x="970" y="737" as="targetPoint" />
          </mxGeometry>
        </mxCell>
        <mxCell id="BUuTYVptsAqOlCM5KFqE-60" value="" style="endArrow=classic;html=1;rounded=0;exitX=1;exitY=0.5;exitDx=0;exitDy=0;entryX=0;entryY=0.5;entryDx=0;entryDy=0;" parent="1" source="BUuTYVptsAqOlCM5KFqE-27" target="BUuTYVptsAqOlCM5KFqE-29" edge="1">
          <mxGeometry width="50" height="50" relative="1" as="geometry">
            <mxPoint x="920" y="787" as="sourcePoint" />
            <mxPoint x="970" y="737" as="targetPoint" />
          </mxGeometry>
        </mxCell>
        <mxCell id="BUuTYVptsAqOlCM5KFqE-61" value="" style="endArrow=classic;html=1;rounded=0;exitX=1;exitY=0.5;exitDx=0;exitDy=0;entryX=0;entryY=0.5;entryDx=0;entryDy=0;" parent="1" source="BUuTYVptsAqOlCM5KFqE-29" target="BUuTYVptsAqOlCM5KFqE-28" edge="1">
          <mxGeometry width="50" height="50" relative="1" as="geometry">
            <mxPoint x="920" y="787" as="sourcePoint" />
            <mxPoint x="970" y="737" as="targetPoint" />
          </mxGeometry>
        </mxCell>
        <mxCell id="BUuTYVptsAqOlCM5KFqE-62" value="" style="endArrow=classic;html=1;rounded=0;exitX=1;exitY=0.5;exitDx=0;exitDy=0;entryX=0;entryY=0.5;entryDx=0;entryDy=0;" parent="1" source="BUuTYVptsAqOlCM5KFqE-28" target="BUuTYVptsAqOlCM5KFqE-32" edge="1">
          <mxGeometry width="50" height="50" relative="1" as="geometry">
            <mxPoint x="920" y="787" as="sourcePoint" />
            <mxPoint x="970" y="737" as="targetPoint" />
          </mxGeometry>
        </mxCell>
        <mxCell id="BUuTYVptsAqOlCM5KFqE-63" value="" style="endArrow=classic;html=1;rounded=0;exitX=1;exitY=0.5;exitDx=0;exitDy=0;entryX=0;entryY=0.5;entryDx=0;entryDy=0;" parent="1" source="BUuTYVptsAqOlCM5KFqE-32" target="BUuTYVptsAqOlCM5KFqE-31" edge="1">
          <mxGeometry width="50" height="50" relative="1" as="geometry">
            <mxPoint x="920" y="787" as="sourcePoint" />
            <mxPoint x="970" y="737" as="targetPoint" />
          </mxGeometry>
        </mxCell>
        <mxCell id="BUuTYVptsAqOlCM5KFqE-64" value="" style="endArrow=classic;html=1;rounded=0;exitX=1;exitY=0.5;exitDx=0;exitDy=0;entryX=0;entryY=0.5;entryDx=0;entryDy=0;" parent="1" source="BUuTYVptsAqOlCM5KFqE-31" target="BUuTYVptsAqOlCM5KFqE-34" edge="1">
          <mxGeometry width="50" height="50" relative="1" as="geometry">
            <mxPoint x="920" y="787" as="sourcePoint" />
            <mxPoint x="970" y="737" as="targetPoint" />
          </mxGeometry>
        </mxCell>
        <mxCell id="BUuTYVptsAqOlCM5KFqE-65" value="" style="endArrow=classic;html=1;rounded=0;exitX=1;exitY=0.5;exitDx=0;exitDy=0;entryX=0;entryY=0.5;entryDx=0;entryDy=0;" parent="1" source="BUuTYVptsAqOlCM5KFqE-34" target="BUuTYVptsAqOlCM5KFqE-35" edge="1">
          <mxGeometry width="50" height="50" relative="1" as="geometry">
            <mxPoint x="920" y="787" as="sourcePoint" />
            <mxPoint x="970" y="737" as="targetPoint" />
          </mxGeometry>
        </mxCell>
        <mxCell id="BUuTYVptsAqOlCM5KFqE-66" value="" style="endArrow=classic;html=1;rounded=0;exitX=0.5;exitY=1;exitDx=0;exitDy=0;entryX=0.5;entryY=0;entryDx=0;entryDy=0;" parent="1" source="BUuTYVptsAqOlCM5KFqE-35" target="BUuTYVptsAqOlCM5KFqE-37" edge="1">
          <mxGeometry width="50" height="50" relative="1" as="geometry">
            <mxPoint x="920" y="787" as="sourcePoint" />
            <mxPoint x="970" y="737" as="targetPoint" />
          </mxGeometry>
        </mxCell>
        <mxCell id="BUuTYVptsAqOlCM5KFqE-67" value="" style="endArrow=classic;html=1;rounded=0;exitX=0.5;exitY=1;exitDx=0;exitDy=0;entryX=0.5;entryY=0;entryDx=0;entryDy=0;" parent="1" source="BUuTYVptsAqOlCM5KFqE-28" target="BUuTYVptsAqOlCM5KFqE-33" edge="1">
          <mxGeometry width="50" height="50" relative="1" as="geometry">
            <mxPoint x="920" y="787" as="sourcePoint" />
            <mxPoint x="970" y="737" as="targetPoint" />
          </mxGeometry>
        </mxCell>
        <mxCell id="BUuTYVptsAqOlCM5KFqE-68" value="" style="endArrow=classic;html=1;rounded=0;exitX=0;exitY=0.5;exitDx=0;exitDy=0;entryX=1;entryY=0.5;entryDx=0;entryDy=0;" parent="1" source="BUuTYVptsAqOlCM5KFqE-33" target="BUuTYVptsAqOlCM5KFqE-38" edge="1">
          <mxGeometry width="50" height="50" relative="1" as="geometry">
            <mxPoint x="920" y="787" as="sourcePoint" />
            <mxPoint x="970" y="737" as="targetPoint" />
          </mxGeometry>
        </mxCell>
        <mxCell id="BUuTYVptsAqOlCM5KFqE-71" value="" style="endArrow=classic;html=1;rounded=0;exitX=0.5;exitY=0;exitDx=0;exitDy=0;entryX=0.5;entryY=1;entryDx=0;entryDy=0;" parent="1" source="BUuTYVptsAqOlCM5KFqE-17" target="BUuTYVptsAqOlCM5KFqE-19" edge="1">
          <mxGeometry width="50" height="50" relative="1" as="geometry">
            <mxPoint x="920" y="630" as="sourcePoint" />
            <mxPoint x="970" y="580" as="targetPoint" />
          </mxGeometry>
        </mxCell>
        <mxCell id="BUuTYVptsAqOlCM5KFqE-72" value="" style="endArrow=classic;html=1;rounded=0;entryX=0.5;entryY=1;entryDx=0;entryDy=0;" parent="1" source="BUuTYVptsAqOlCM5KFqE-21" target="BUuTYVptsAqOlCM5KFqE-23" edge="1">
          <mxGeometry width="50" height="50" relative="1" as="geometry">
            <mxPoint x="760" y="520" as="sourcePoint" />
            <mxPoint x="970" y="580" as="targetPoint" />
          </mxGeometry>
        </mxCell>
        <mxCell id="BUuTYVptsAqOlCM5KFqE-73" value="" style="endArrow=classic;html=1;rounded=0;" parent="1" source="BUuTYVptsAqOlCM5KFqE-25" target="BUuTYVptsAqOlCM5KFqE-26" edge="1">
          <mxGeometry width="50" height="50" relative="1" as="geometry">
            <mxPoint x="920" y="630" as="sourcePoint" />
            <mxPoint x="970" y="580" as="targetPoint" />
          </mxGeometry>
        </mxCell>
      </root>
    </mxGraphModel>
  </diagram>
</mxfile>
